<svg width="146" height="117" viewBox="0 0 146 117" fill="none" xmlns="http://www.w3.org/2000/svg">
<path d="M49.9814 93.042L41.2845 106.653C38.4219 111.135 41.643 117 46.9669 117H138.92C144.511 117 147.89 110.838 144.882 106.137L136.489 93.042H49.9814Z" fill="url(#paint0_linear_234_17)"/>
<path d="M99.7137 86.4187H119.927C125.257 86.4187 128.479 80.5414 125.61 76.0652L78.959 3.25708C76.1755 -1.08569 69.8245 -1.08569 67.041 3.25708L56.7092 19.3848L99.7137 86.4247V86.4187Z" fill="url(#paint1_linear_234_17)"/>
<path d="M69.0467 50.9001L58.4536 34.3843C55.7977 30.2477 49.7445 30.2477 47.0947 34.3843L1.12442 106.137C-1.88394 110.838 1.49515 117 7.08646 117H26.7958L69.0467 50.9001Z" fill="url(#paint2_linear_234_17)"/>
<path style="mix-blend-mode:soft-light" d="M58.4536 34.3843L59.3044 35.7065L7.08646 117C1.49515 117 -1.88394 110.838 1.12442 106.137L47.0947 34.3904C49.7445 30.2538 55.7977 30.2538 58.4536 34.3904V34.3843Z" fill="url(#paint3_linear_234_17)"/>
<path style="mix-blend-mode:soft-light" d="M67.0411 3.25708L66.0322 4.83406L118.907 86.4247H119.934C125.264 86.4247 128.485 80.5474 125.616 76.0712L78.9591 3.25708C76.1756 -1.08569 69.8246 -1.08569 67.0411 3.25708Z" fill="url(#paint4_linear_234_17)"/>
<path style="mix-blend-mode:soft-light" d="M144.159 105.021H42.3239L41.2786 106.653C38.4161 111.135 41.6372 117 46.9611 117H138.92C144.511 117 147.89 110.838 144.882 106.137L144.165 105.021H144.159Z" fill="url(#paint5_linear_234_17)"/>
<path d="M89.7345 86.1275L73.0031 60.0103L56.2656 86.1275H89.7345Z" fill="url(#paint6_linear_234_17)"/>
<path style="mix-blend-mode:soft-light" d="M56.2656 86.1275L73.0031 76.2714V60.0103L56.2656 86.1275Z" fill="url(#paint7_linear_234_17)"/>
<path style="mix-blend-mode:soft-light" d="M89.7345 86.1275H56.2656L73.0031 76.2714L89.7345 86.1275Z" fill="url(#paint8_linear_234_17)"/>
<defs>
<linearGradient id="paint0_linear_234_17" x1="139.57" y1="104.863" x2="48.9664" y2="105.18" gradientUnits="userSpaceOnUse">
<stop stop-color="#F84FFF"/>
<stop offset="1" stop-color="#7B86FF"/>
</linearGradient>
<linearGradient id="paint1_linear_234_17" x1="66.2509" y1="8.75832" x2="113.205" y2="82.5132" gradientUnits="userSpaceOnUse">
<stop stop-color="#F84FFF"/>
<stop offset="1" stop-color="#7B86FF"/>
</linearGradient>
<linearGradient id="paint2_linear_234_17" x1="13.7778" y1="112.026" x2="57.7986" y2="42.5289" gradientUnits="userSpaceOnUse">
<stop stop-color="#F84FFF"/>
<stop offset="1" stop-color="#7B86FF"/>
</linearGradient>
<linearGradient id="paint3_linear_234_17" x1="5.31791" y1="110.249" x2="53.1441" y2="34.4068" gradientUnits="userSpaceOnUse">
<stop stop-color="white" stop-opacity="0"/>
<stop offset="1" stop-color="white"/>
</linearGradient>
<linearGradient id="paint4_linear_234_17" x1="76.6739" y1="6.49596" x2="119.178" y2="82.1489" gradientUnits="userSpaceOnUse">
<stop stop-color="white" stop-opacity="0"/>
<stop offset="1" stop-color="white"/>
</linearGradient>
<linearGradient id="paint5_linear_234_17" x1="133.487" y1="107.065" x2="48.4773" y2="114.951" gradientUnits="userSpaceOnUse">
<stop stop-color="white" stop-opacity="0"/>
<stop offset="1" stop-color="white"/>
</linearGradient>
<linearGradient id="paint6_linear_234_17" x1="65.6675" y1="62.5516" x2="73.1398" y2="86.6698" gradientUnits="userSpaceOnUse">
<stop stop-color="#F84FFF"/>
<stop offset="1" stop-color="#7B86FF"/>
</linearGradient>
<linearGradient id="paint7_linear_234_17" x1="71.0704" y1="61.1445" x2="62.9986" y2="86.3977" gradientUnits="userSpaceOnUse">
<stop stop-color="white" stop-opacity="0"/>
<stop offset="1" stop-color="white"/>
</linearGradient>
<linearGradient id="paint8_linear_234_17" x1="61.0729" y1="81.2025" x2="87.1637" y2="81.2025" gradientUnits="userSpaceOnUse">
<stop stop-color="white" stop-opacity="0"/>
<stop offset="1" stop-color="white"/>
</linearGradient>
</defs>
</svg>
