<!-- main navigation  -->
<svg xmlns="http://www.w3.org/2000/svg" width="0" height="0" display="none">
  <symbol id='login' viewBox="0 0 12 12" fill="none">
    <path d="M8.96714 2.84211C8.96714 4.41176 7.68825 5.68421 6.11066 5.68421C4.53307 5.68421 3.25418 4.41176 3.25418 2.84211C3.25418 1.27245 4.53307 0 6.11066 0C7.68825 0 8.96714 1.27245 8.96714 2.84211Z" fill="#F0EFF4"/>
    <path d="M0.715088 8.78195C0.715088 7.73552 1.56768 6.88722 2.61941 6.88722H9.60191C10.6536 6.88722 11.5062 7.73552 11.5062 8.78195V10.1053C11.5062 11.1517 10.6536 12 9.60191 12H2.61941C1.56768 12 0.715088 11.1517 0.715088 10.1053V8.78195Z" fill="#F0EFF4"/>
  </symbol>

  <symbol id='password' viewBox="0 0 12 13" fill="none">
    <path d="M10.328 4.29614H9.50893V3.30578C9.50893 1.47853 7.97144 0 6.10347 0C4.2355 0 2.69802 1.49248 2.69802 3.30578V4.29614H1.87899C1.24675 4.29614 0.715088 4.81223 0.715088 5.42596V11.8702C0.715088 12.4978 1.23238 13 1.87899 13H10.328C10.9746 13 11.5062 12.4978 11.5062 11.8702V5.42596C11.5062 4.81223 10.9746 4.29614 10.328 4.29614ZM4.23551 3.30578C4.23551 2.30149 5.0689 1.4925 6.10347 1.4925C7.13804 1.4925 7.97145 2.30149 7.97145 3.30578V4.29614H4.23551V3.30578ZM6.73571 10.015V11.6609C6.73571 11.7307 6.67824 11.7865 6.6064 11.7865H5.78736C5.78736 11.7865 5.65804 11.7307 5.65804 11.6609V10.015C5.09764 9.8058 4.70969 9.28969 4.70969 8.67596C4.70969 7.8809 5.37066 7.22533 6.20407 7.22533C7.03747 7.22533 7.69843 7.86695 7.69843 8.67596C7.69843 9.28969 7.29611 9.81975 6.75008 10.015H6.73571Z" fill="#F0EFF4"/>
  </symbol>

  <symbol id='dashboard' viewBox="0 0 18 18">
    <path d="M1 2.6C1 1.71634 1.71634 1 2.6 1H15.4C16.2837 1 17 1.71634 17 2.6V11.4C17 12.2837 16.2837 13 15.4 13H9.8V14.6H12.2C12.6418 14.6 13 14.9582 13 15.4C13 15.8418 12.6418 16.2 12.2 16.2H5.8C5.35817 16.2 5 15.8418 5 15.4C5 14.9582 5.35817 14.6 5.8 14.6H8.2V13H2.6C1.71635 13 1 12.2837 1 11.4V2.6ZM15.4 11.4V2.6H2.6V11.4H15.4Z" />
  </symbol>

  <symbol id="conversation" viewBox="0 0 18 18">
    <path d="M1 2.66667C1 1.74619 1.74619 1 2.66667 1H14.3333C15.2538 1 16 1.74619 16 2.66667V14.3333C16 15.2538 15.2538 16 14.3333 16H2.66667C1.74619 16 1 15.2538 1 14.3333V2.66667ZM14.3333 2.66667H2.66667V14.3333H14.3333V2.66667ZM8.5 4.33333C8.96024 4.33333 9.33333 4.70643 9.33333 5.16667V11.8333C9.33333 12.2936 8.96024 12.6667 8.5 12.6667C8.03976 12.6667 7.66667 12.2936 7.66667 11.8333V5.16667C7.66667 4.70643 8.03976 4.33333 8.5 4.33333ZM11.8333 6C12.2936 6 12.6667 6.3731 12.6667 6.83333V11.8333C12.6667 12.2936 12.2936 12.6667 11.8333 12.6667C11.3731 12.6667 11 12.2936 11 11.8333V6.83333C11 6.3731 11.3731 6 11.8333 6ZM5.16667 7.66667C5.6269 7.66667 6 8.03976 6 8.5V11.8333C6 12.2936 5.6269 12.6667 5.16667 12.6667C4.70643 12.6667 4.33333 12.2936 4.33333 11.8333V8.5C4.33333 8.03976 4.70643 7.66667 5.16667 7.66667Z" />
  </symbol>
  
  <symbol id="domain" viewBox="0 0 18 18" >
    <path d="M9 1C7.41775 1 5.87103 1.46919 4.55544 2.34824C3.23985 3.22729 2.21447 4.47672 1.60897 5.93853C1.00347 7.40034 0.84504 9.00887 1.15372 10.5607C1.4624 12.1126 2.22433 13.538 3.34315 14.6569C4.46197 15.7757 5.88743 16.5376 7.43928 16.8463C8.99113 17.155 10.5997 16.9965 12.0615 16.391C13.5233 15.7855 14.7727 14.7602 15.6518 13.4446C16.5308 12.129 17 10.5822 17 9C16.9977 6.87897 16.1541 4.84547 14.6543 3.34568C13.1545 1.84589 11.121 1.00229 9 1ZM14.7647 5.66667H12.6173C12.1366 4.55266 11.5037 3.51072 10.7367 2.57067C12.4343 3.03262 13.8815 4.14498 14.7647 5.66667ZM12 9C11.9945 9.67876 11.8876 10.3529 11.6827 11H6.31734C6.11244 10.3529 6.00548 9.67876 6 9C6.00548 8.32124 6.11244 7.64712 6.31734 7H11.6827C11.8876 7.64712 11.9945 8.32124 12 9ZM6.852 12.3333H11.148C10.5822 13.4505 9.85877 14.4806 9 15.392C8.14092 14.4808 7.4175 13.4507 6.852 12.3333ZM6.852 5.66667C7.41784 4.54951 8.14123 3.51944 9 2.608C9.85909 3.51918 10.5825 4.5493 11.148 5.66667H6.852ZM7.26667 2.57067C6.49844 3.51052 5.86439 4.55246 5.38267 5.66667H3.23534C4.11924 4.14429 5.56777 3.03184 7.26667 2.57067ZM2.64067 7H4.93334C4.76051 7.65276 4.67091 8.32476 4.66667 9C4.67091 9.67524 4.76051 10.3472 4.93334 11H2.64067C2.2309 9.69815 2.2309 8.30185 2.64067 7ZM3.23534 12.3333H5.38267C5.86439 13.4475 6.49844 14.4895 7.26667 15.4293C5.56777 14.9682 4.11924 13.8557 3.23534 12.3333ZM10.7367 15.4293C11.5037 14.4893 12.1366 13.4473 12.6173 12.3333H14.7647C13.8815 13.855 12.4343 14.9674 10.7367 15.4293ZM15.3593 11H13.0667C13.2395 10.3472 13.3291 9.67524 13.3333 9C13.3291 8.32476 13.2395 7.65276 13.0667 7H15.358C15.7678 8.30185 15.7678 9.69815 15.358 11H15.3593Z" />
  </symbol>

  <symbol id="billing" viewBox="0 0 18 18">
    <path d="M17 4.6C17 3.71634 16.2837 3 15.4 3H2.6C1.71634 3 1 3.71635 1 4.6V14.2C1 15.0837 1.71634 15.8 2.6 15.8H15.4C16.2837 15.8 17 15.0837 17 14.2V4.6ZM15.4 6.2H2.6L2.6 4.6L15.4 4.6V6.2ZM2.6 8.6H15.4V14.2L2.6 14.2L2.6 8.6Z" />
  </symbol>

  <symbol id="settings" viewBox="0 0 18 18">
    <path d="M9 2.6C8.55817 2.6 8.2 2.95817 8.2 3.4C8.2 4.7538 6.56319 5.43179 5.60591 4.47451C5.29349 4.16209 4.78696 4.16209 4.47454 4.47451C4.16212 4.78693 4.16212 5.29346 4.47454 5.60588C5.43186 6.5632 4.75378 8.2 3.4 8.2C2.95817 8.2 2.6 8.55817 2.6 9C2.6 9.44183 2.95817 9.8 3.4 9.8C4.75389 9.8 5.43171 11.4369 4.47448 12.3941C4.16207 12.7065 4.16207 13.2131 4.47448 13.5255C4.7869 13.8379 5.29344 13.8379 5.60585 13.5255C6.56312 12.5682 8.2 13.2461 8.2 14.6C8.2 15.0418 8.55817 15.4 9 15.4C9.44183 15.4 9.8 15.0418 9.8 14.6C9.8 13.2462 11.4368 12.5682 12.3941 13.5255C12.7066 13.8379 13.2131 13.8379 13.5255 13.5255C13.8379 13.2131 13.8379 12.7065 13.5255 12.3941C12.5682 11.4368 13.2462 9.8 14.6 9.8C15.0418 9.8 15.4 9.44183 15.4 9C15.4 8.55817 15.0418 8.2 14.6 8.2C13.2463 8.2 12.5681 6.56324 13.5255 5.60589C13.8379 5.29347 13.8379 4.78694 13.5255 4.47452C13.213 4.1621 12.7065 4.1621 12.3941 4.47452C11.4368 5.43183 9.8 4.75375 9.8 3.4C9.8 2.95817 9.44183 2.6 9 2.6ZM6.60653 3.22162C6.69779 1.97944 7.73452 1 9 1C10.2655 1 11.3022 1.97944 11.3935 3.22162C12.3364 2.40781 13.762 2.44832 14.6568 3.34315C15.5517 4.23799 15.5922 5.66364 14.7783 6.60653C16.0205 6.69776 17 7.7345 17 9C17 10.2655 16.0206 11.3022 14.7784 11.3935C15.5922 12.3364 15.5517 13.762 14.6569 14.6568C13.762 15.5517 12.3364 15.5922 11.3935 14.7783C11.3022 16.0205 10.2655 17 9 17C7.7345 17 6.69777 16.0205 6.60653 14.7783C5.66364 15.5922 4.23796 15.5517 3.34311 14.6569C2.44827 13.762 2.40778 12.3364 3.22162 11.3935C1.97944 11.3022 1 10.2655 1 9C1 7.7345 1.97947 6.69776 3.22167 6.60652C2.40783 5.66364 2.44833 4.23798 3.34316 3.34314C4.238 2.44831 5.66364 2.4078 6.60653 3.22162Z" />
    <path d="M9 7.4C8.57565 7.4 8.16869 7.56857 7.86863 7.86863C7.56857 8.16869 7.4 8.57565 7.4 9C7.4 9.42435 7.56857 9.83131 7.86863 10.1314C8.16869 10.4314 8.57565 10.6 9 10.6C9.42435 10.6 9.83131 10.4314 10.1314 10.1314C10.4314 9.83131 10.6 9.42435 10.6 9C10.6 8.57565 10.4314 8.16869 10.1314 7.86863C9.83131 7.56857 9.42435 7.4 9 7.4ZM6.73726 6.73726C7.33737 6.13714 8.15131 5.8 9 5.8C9.84869 5.8 10.6626 6.13714 11.2627 6.73726C11.8629 7.33737 12.2 8.15131 12.2 9C12.2 9.84869 11.8629 10.6626 11.2627 11.2627C10.6626 11.8629 9.84869 12.2 9 12.2C8.15131 12.2 7.33737 11.8629 6.73726 11.2627C6.13714 10.6626 5.8 9.84869 5.8 9C5.8 8.15131 6.13714 7.33737 6.73726 6.73726Z" />
  </symbol>
  
  <symbol id="logout" viewBox="0 0 18 18">
    <path fill-rule="evenodd" clip-rule="evenodd" d="M8.66667 15.1667C8.66667 14.7064 8.29357 14.3333 7.83333 14.3333H3.66667V2.66667H7.83333C8.29357 2.66667 8.66667 2.29357 8.66667 1.83333C8.66667 1.37309 8.29357 1 7.83333 1H3.66667C2.74619 1 2 1.74619 2 2.66667V14.3333C2 15.2538 2.74619 16 3.66667 16H7.83333C8.29357 16 8.66667 15.6269 8.66667 15.1667Z" />
    <path d="M16.5947 9.08379C16.6719 9.00517 16.7304 8.91504 16.7701 8.81899C16.8105 8.72146 16.833 8.61458 16.8333 8.5025L16.8333 8.5L16.8333 8.4975C16.8327 8.28507 16.7513 8.07283 16.5893 7.91074L13.2559 4.57741C12.9305 4.25197 12.4028 4.25197 12.0774 4.57741C11.752 4.90285 11.752 5.43048 12.0774 5.75592L13.9882 7.66667H6C5.53976 7.66667 5.16667 8.03976 5.16667 8.5C5.16667 8.96024 5.53976 9.33333 6 9.33333H13.9882L12.0774 11.2441C11.752 11.5695 11.752 12.0972 12.0774 12.4226C12.4028 12.748 12.9305 12.748 13.2559 12.4226L16.5887 9.08985L16.5947 9.08379Z" />
  </symbol>



  <!-- partner integration  -->
  <symbol id="partner" viewBox="0 0 18 18" >
    <path d="M7.4 2.6C5.63269 2.6 4.2 4.03269 4.2 5.8C4.2 7.56731 5.63269 9 7.4 9C9.16731 9 10.6 7.56731 10.6 5.8C10.6 4.03269 9.16731 2.6 7.4 2.6ZM2.6 5.8C2.6 3.14903 4.74903 1 7.4 1C10.051 1 12.2 3.14903 12.2 5.8C12.2 8.45097 10.051 10.6 7.4 10.6C4.74903 10.6 2.6 8.45097 2.6 5.8ZM12.8627 2.40589C13.1752 2.09347 13.6817 2.09347 13.9941 2.40589C15.8686 4.2804 15.8686 7.3196 13.9941 9.19411C13.6817 9.50653 13.1752 9.50653 12.8627 9.19411C12.5503 8.88169 12.5503 8.37516 12.8627 8.06274C14.1124 6.81306 14.1124 4.78694 12.8627 3.53726C12.5503 3.22484 12.5503 2.71831 12.8627 2.40589ZM13.4239 12.806C13.531 12.3773 13.9654 12.1167 14.394 12.2239C15.4564 12.4895 16.1288 13.1687 16.5155 13.9422C16.8898 14.6907 17 15.5257 17 16.2C17 16.6418 16.6418 17 16.2 17C15.7582 17 15.4 16.6418 15.4 16.2C15.4 15.6743 15.3102 15.1093 15.0845 14.6578C14.8712 14.2313 14.5436 13.9105 14.006 13.7761C13.5773 13.669 13.3167 13.2346 13.4239 12.806ZM4.6 13.8C3.59243 13.8 2.6 14.7708 2.6 16.2C2.6 16.6418 2.24183 17 1.8 17C1.35817 17 1 16.6418 1 16.2C1 14.0945 2.51477 12.2 4.6 12.2H10.2C12.2852 12.2 13.8 14.0945 13.8 16.2C13.8 16.6418 13.4418 17 13 17C12.5582 17 12.2 16.6418 12.2 16.2C12.2 14.7708 11.2076 13.8 10.2 13.8H4.6Z" />
  </symbol>

  <symbol id="deal" viewBox="0 0 18 18">
    <path d="M3.6 4.2C3.6 4.22043 3.60818 4.33566 3.83367 4.53558C4.05823 4.73468 4.42881 4.95052 4.95542 5.14799C6.00272 5.54073 7.50322 5.8 9.2 5.8C10.8968 5.8 12.3973 5.54073 13.4446 5.14799C13.9712 4.95052 14.3418 4.73468 14.5663 4.53558C14.7918 4.33566 14.8 4.22043 14.8 4.2C14.8 4.17957 14.7918 4.06434 14.5663 3.86442C14.3418 3.66532 13.9712 3.44948 13.4446 3.25201C12.3973 2.85927 10.8968 2.6 9.2 2.6C7.50322 2.6 6.00272 2.85927 4.95542 3.25201C4.42881 3.44948 4.05823 3.66532 3.83367 3.86442C3.60818 4.06434 3.6 4.17957 3.6 4.2ZM2 4.2C2 3.55769 2.34999 3.04155 2.77222 2.6672C3.19537 2.29203 3.76205 1.99072 4.39362 1.75388C5.66266 1.27799 7.36216 1 9.2 1C11.0378 1 12.7373 1.27799 14.0064 1.75388C14.638 1.99072 15.2046 2.29203 15.6278 2.6672C16.05 3.04155 16.4 3.55769 16.4 4.2V7.4V10.6V13.8C16.4 14.4423 16.05 14.9585 15.6278 15.3328C15.2046 15.708 14.638 16.0093 14.0064 16.2461C12.7373 16.722 11.0378 17 9.2 17C7.36216 17 5.66266 16.722 4.39362 16.2461C3.76205 16.0093 3.19537 15.708 2.77222 15.3328C2.34999 14.9585 2 14.4423 2 13.8V10.6V7.4V4.2ZM3.6 7.4C3.6 7.42043 3.60818 7.53566 3.83367 7.73558C4.05823 7.93467 4.42881 8.15052 4.95542 8.34799C6.00272 8.74073 7.50322 9 9.2 9C10.8968 9 12.3973 8.74073 13.4446 8.34799C13.9712 8.15052 14.3418 7.93467 14.5663 7.73558C14.7918 7.53566 14.8 7.42043 14.8 7.4V6.29295C14.5527 6.42385 14.2859 6.5413 14.0064 6.64612C12.7373 7.12201 11.0378 7.4 9.2 7.4C7.36216 7.4 5.66266 7.12201 4.39362 6.64612C4.11409 6.5413 3.84728 6.42385 3.6 6.29295V7.4ZM3.6 9.49295V10.6C3.6 10.6204 3.60818 10.7357 3.83367 10.9356C4.05823 11.1347 4.42881 11.3505 4.95542 11.548C6.00272 11.9407 7.50322 12.2 9.2 12.2C10.8968 12.2 12.3973 11.9407 13.4446 11.548C13.9712 11.3505 14.3418 11.1347 14.5663 10.9356C14.7918 10.7357 14.8 10.6204 14.8 10.6V9.49295C14.5527 9.62385 14.2859 9.7413 14.0064 9.84612C12.7373 10.322 11.0378 10.6 9.2 10.6C7.36216 10.6 5.66266 10.322 4.39362 9.84612C4.11409 9.7413 3.84728 9.62385 3.6 9.49295ZM3.6 12.693V13.8C3.6 13.8204 3.60818 13.9357 3.83367 14.1356C4.05823 14.3347 4.42881 14.5505 4.95542 14.748C6.00272 15.1407 7.50322 15.4 9.2 15.4C10.8968 15.4 12.3973 15.1407 13.4446 14.748C13.9712 14.5505 14.3418 14.3347 14.5663 14.1356C14.7918 13.9357 14.8 13.8204 14.8 13.8V12.693C14.5527 12.8238 14.2859 12.9413 14.0064 13.0461C12.7373 13.522 11.0378 13.8 9.2 13.8C7.36216 13.8 5.66266 13.522 4.39362 13.0461C4.11409 12.9413 3.84728 12.8238 3.6 12.693Z" />
  </symbol>

  <symbol id="offer" viewBox="0 0 18 18">
    <path d="M1 1.8C1 1.35817 1.35817 1 1.8 1H8.2C8.41217 1 8.61566 1.08429 8.76569 1.23431L16.7657 9.23431C17.0781 9.54673 17.0781 10.0533 16.7657 10.3657L10.3657 16.7657C10.0533 17.0781 9.54673 17.0781 9.23431 16.7657L1.23431 8.76569C1.08429 8.61566 1 8.41217 1 8.2V1.8ZM2.6 2.6V7.86863L9.8 15.0686L15.0686 9.8L7.86863 2.6H2.6Z" />
    <path d="M6.6 5.4C6.6 6.06274 6.06274 6.6 5.4 6.6C4.73726 6.6 4.2 6.06274 4.2 5.4C4.2 4.73726 4.73726 4.2 5.4 4.2C6.06274 4.2 6.6 4.73726 6.6 5.4Z" />
  </symbol>


  <symbol id="info" viewBox="0 0 30 30">
    <path d="M12 16.75C11.8019 16.7474 11.6126 16.6676 11.4725 16.5275C11.3324 16.3874 11.2526 16.1981 11.25 16V11C11.25 10.8011 11.329 10.6103 11.4697 10.4697C11.6103 10.329 11.8011 10.25 12 10.25C12.1989 10.25 12.3897 10.329 12.5303 10.4697C12.671 10.6103 12.75 10.8011 12.75 11V16C12.7474 16.1981 12.6676 16.3874 12.5275 16.5275C12.3874 16.6676 12.1981 16.7474 12 16.75Z" fill="#ffffff"/> 
    <path d="M12 9.25C11.8019 9.24741 11.6126 9.16756 11.4725 9.02747C11.3324 8.88737 11.2526 8.69811 11.25 8.5V8C11.25 7.80109 11.329 7.61032 11.4697 7.46967C11.6103 7.32902 11.8011 7.25 12 7.25C12.1989 7.25 12.3897 7.32902 12.5303 7.46967C12.671 7.61032 12.75 7.80109 12.75 8V8.5C12.7474 8.69811 12.6676 8.88737 12.5275 9.02747C12.3874 9.16756 12.1981 9.24741 12 9.25Z" fill="#ffffff"/> 
    <path d="M12 21C10.22 21 8.47991 20.4722 6.99987 19.4832C5.51983 18.4943 4.36628 17.0887 3.68509 15.4442C3.0039 13.7996 2.82567 11.99 3.17294 10.2442C3.5202 8.49836 4.37737 6.89472 5.63604 5.63604C6.89472 4.37737 8.49836 3.5202 10.2442 3.17294C11.99 2.82567 13.7996 3.0039 15.4442 3.68509C17.0887 4.36628 18.4943 5.51983 19.4832 6.99987C20.4722 8.47991 21 10.22 21 12C21 14.387 20.0518 16.6761 18.364 18.364C16.6761 20.0518 14.387 21 12 21ZM12 4.5C10.5166 4.5 9.0666 4.93987 7.83323 5.76398C6.59986 6.58809 5.63856 7.75943 5.07091 9.12988C4.50325 10.5003 4.35473 12.0083 4.64411 13.4632C4.9335 14.918 5.64781 16.2544 6.6967 17.3033C7.7456 18.3522 9.08197 19.0665 10.5368 19.3559C11.9917 19.6453 13.4997 19.4968 14.8701 18.9291C16.2406 18.3614 17.4119 17.4001 18.236 16.1668C19.0601 14.9334 19.5 13.4834 19.5 12C19.5 10.0109 18.7098 8.10323 17.3033 6.6967C15.8968 5.29018 13.9891 4.5 12 4.5Z" fill="#ffffff"/>
  </symbol>
  <!-- period filters  -->
  <symbol id="today" viewBox="0 0 18 18">
    <path d="M6.33333 9H5C4.26467 9 3.66667 9.598 3.66667 10.3333V11.6667C3.66667 12.402 4.26467 13 5 13H6.33333C7.06867 13 7.66667 12.402 7.66667 11.6667V10.3333C7.66667 9.598 7.06867 9 6.33333 9ZM5 11.6667V10.3333H6.33333V11.6667H5ZM13.6667 2.33333H13V1.66667C13 1.29867 12.702 1 12.3333 1C11.9647 1 11.6667 1.29867 11.6667 1.66667V2.33333H6.33333V1.66667C6.33333 1.29867 6.03533 1 5.66667 1C5.298 1 5 1.29867 5 1.66667V2.33333H4.33333C2.49533 2.33333 1 3.82867 1 5.66667V13.6667C1 15.5047 2.49533 17 4.33333 17H13.6667C15.5047 17 17 15.5047 17 13.6667V5.66667C17 3.82867 15.5047 2.33333 13.6667 2.33333ZM4.33333 3.66667H13.6667C14.7693 3.66667 15.6667 4.564 15.6667 5.66667V6.33333H2.33333V5.66667C2.33333 4.564 3.23067 3.66667 4.33333 3.66667ZM13.6667 15.6667H4.33333C3.23067 15.6667 2.33333 14.7693 2.33333 13.6667V7.66667H15.6667V13.6667C15.6667 14.7693 14.7693 15.6667 13.6667 15.6667Z" />
  </symbol>

  <symbol id="yesterday" viewBox="0 0 18 18">
    <path d="M9.9 2.9C9.9 2.40294 9.49706 2 9 2C8.50294 2 8.1 2.40294 8.1 2.9V3.8C8.1 4.29706 8.50294 4.7 9 4.7C9.49706 4.7 9.9 4.29706 9.9 3.8V2.9Z" />
    <path d="M6.32558 15.5C6.30809 15.5005 6.29057 15.5005 6.27305 15.5H0.9C0.402944 15.5 0 15.0971 0 14.6C0 14.1029 0.402944 13.7 0.9 13.7H4.32264C3.86331 12.9059 3.6 11.9837 3.6 11C3.6 8.01766 6.01766 5.6 9 5.6C11.9823 5.6 14.4 8.01766 14.4 11C14.4 11.9837 14.1367 12.9059 13.6774 13.7H17.1C17.5971 13.7 18 14.1029 18 14.6C18 15.0971 17.5971 15.5 17.1 15.5H11.7269C11.7094 15.5005 11.6919 15.5005 11.6744 15.5H6.32558ZM9 7.4C7.01178 7.4 5.4 9.01178 5.4 11C5.4 12.0746 5.87007 13.0393 6.61871 13.7H11.3813C12.1299 13.0393 12.6 12.0746 12.6 11C12.6 9.01178 10.9882 7.4 9 7.4Z" />
    <path d="M15.364 5.90884L14.7276 6.54523C14.3761 6.89671 13.8063 6.89671 13.4548 6.54523C13.1033 6.19376 13.1033 5.62391 13.4548 5.27244L14.0912 4.63605C14.4427 4.28457 15.0125 4.28457 15.364 4.63605C15.7155 4.98752 15.7155 5.55737 15.364 5.90884Z" />
    <path d="M1.8 11.9C2.29706 11.9 2.7 11.4971 2.7 11C2.7 10.5029 2.29706 10.1 1.8 10.1H0.9C0.402944 10.1 0 10.5029 0 11C0 11.4971 0.402944 11.9 0.9 11.9H1.8Z" />
    <path d="M18 11C18 11.4971 17.5971 11.9 17.1 11.9H16.2C15.7029 11.9 15.3 11.4971 15.3 11C15.3 10.5029 15.7029 10.1 16.2 10.1H17.1C17.5971 10.1 18 10.5029 18 11Z" />
    <path d="M3.27243 6.54522C3.6239 6.89669 4.19375 6.89669 4.54522 6.54522C4.89669 6.19375 4.89669 5.6239 4.54522 5.27243L3.90883 4.63603C3.55735 4.28456 2.98751 4.28456 2.63603 4.63603C2.28456 4.98751 2.28456 5.55735 2.63603 5.90883L3.27243 6.54522Z" />
  </symbol>

  <symbol id="week" viewBox="0 0 18 18">
    <path xmlns="http://www.w3.org/2000/svg" d="M13 9H5C4.26467 9 3.66667 9.598 3.66667 10.3333V11.6667C3.66667 12.402 4.26467 13 5 13H13C13.7353 13 14.3333 12.402 14.3333 11.6667V10.3333C14.3333 9.598 13.7353 9 13 9ZM5 11.6667V10.3333H13V11.6667H5ZM13.6667 2.33333H13V1.66667C13 1.29867 12.702 1 12.3333 1C11.9647 1 11.6667 1.29867 11.6667 1.66667V2.33333H6.33333V1.66667C6.33333 1.29867 6.03533 1 5.66667 1C5.298 1 5 1.29867 5 1.66667V2.33333H4.33333C2.49533 2.33333 1 3.82867 1 5.66667V13.6667C1 15.5047 2.49533 17 4.33333 17H13.6667C15.5047 17 17 15.5047 17 13.6667V5.66667C17 3.82867 15.5047 2.33333 13.6667 2.33333ZM4.33333 3.66667H13.6667C14.7693 3.66667 15.6667 4.564 15.6667 5.66667V6.33333H2.33333V5.66667C2.33333 4.564 3.23067 3.66667 4.33333 3.66667ZM13.6667 15.6667H4.33333C3.23067 15.6667 2.33333 14.7693 2.33333 13.6667V7.66667H15.6667V13.6667C15.6667 14.7693 14.7693 15.6667 13.6667 15.6667Z" />
  </symbol>

  <symbol id="month" viewBox="0 0 18 18">
    <path d="M6.65401 1.26037C6.92523 1.53159 6.99189 1.94619 6.81935 2.28876C6.36948 3.18196 6.11574 4.19143 6.11574 5.26274C6.11574 8.91971 9.08029 11.8843 12.7373 11.8843C13.8086 11.8843 14.818 11.6305 15.7112 11.1806C16.0538 11.0081 16.4684 11.0748 16.7396 11.346C17.0108 11.6172 17.0775 12.0318 16.905 12.3744C15.5241 15.1161 12.6825 17 9.3993 17C4.7605 17 1 13.2395 1 8.6007C1 5.31751 2.88391 2.47592 5.62563 1.09503C5.96819 0.922496 6.38279 0.989155 6.65401 1.26037ZM4.39706 4.26188C3.38788 5.42438 2.77777 6.94162 2.77777 8.6007C2.77777 12.2577 5.74233 15.2222 9.3993 15.2222C11.0584 15.2222 12.5756 14.6121 13.7381 13.6029C13.4098 13.642 13.0758 13.662 12.7373 13.662C8.09846 13.662 4.33796 9.90154 4.33796 5.26274C4.33796 4.9242 4.35803 4.5902 4.39706 4.26188Z" />
  </symbol>



  <!-- other filters  -->
  <symbol id="calendar" viewBox="0 0 18 18">
    <path d="M13.6667 2.33333H13V1.66667C13 1.29867 12.702 1 12.3333 1C11.9647 1 11.6667 1.29867 11.6667 1.66667V2.33333H6.33333V1.66667C6.33333 1.29867 6.03533 1 5.66667 1C5.298 1 5 1.29867 5 1.66667V2.33333H4.33333C2.49533 2.33333 1 3.82867 1 5.66667V13.6667C1 15.5047 2.49533 17 4.33333 17H13.6667C15.5047 17 17 15.5047 17 13.6667V5.66667C17 3.82867 15.5047 2.33333 13.6667 2.33333ZM4.33333 3.66667H13.6667C14.7693 3.66667 15.6667 4.564 15.6667 5.66667V6.33333H2.33333V5.66667C2.33333 4.564 3.23067 3.66667 4.33333 3.66667ZM13.6667 15.6667H4.33333C3.23067 15.6667 2.33333 14.7693 2.33333 13.6667V7.66667H15.6667V13.6667C15.6667 14.7693 14.7693 15.6667 13.6667 15.6667Z" />
  </symbol>

  <symbol id="bayer" viewBox="0 0 18 18">
    <path d="M7.2 2.6C5.43269 2.6 4 4.03269 4 5.8C4 7.56731 5.43269 9 7.2 9C8.96731 9 10.4 7.56731 10.4 5.8C10.4 4.03269 8.96731 2.6 7.2 2.6ZM2.4 5.8C2.4 3.14903 4.54903 1 7.2 1C9.85097 1 12 3.14903 12 5.8C12 8.45097 9.85097 10.6 7.2 10.6C4.54903 10.6 2.4 8.45097 2.4 5.8ZM4 13.8C2.67452 13.8 1.6 14.8745 1.6 16.2C1.6 16.6418 1.24183 17 0.8 17C0.358172 17 0 16.6418 0 16.2C0 13.9909 1.79086 12.2 4 12.2H10.4C12.6091 12.2 14.4 13.9909 14.4 16.2C14.4 16.6418 14.0418 17 13.6 17C13.1582 17 12.8 16.6418 12.8 16.2C12.8 14.8745 11.7255 13.8 10.4 13.8H4Z" />
    <path d="M17.0736 9.63406C16.7707 9.46058 16.4486 9.3284 16.1298 9.19126C15.9448 9.11195 15.7678 9.01942 15.6116 8.89055C15.3039 8.6361 15.3629 8.22303 15.7232 8.05946C15.8252 8.01319 15.932 7.99832 16.0405 7.99171C16.4582 7.96858 16.8552 8.04789 17.2331 8.23625C17.4212 8.33043 17.4834 8.30069 17.5472 8.09746C17.6141 7.88266 17.6699 7.66457 17.7321 7.44812C17.7736 7.30272 17.7225 7.20689 17.5902 7.14575C17.3479 7.03505 17.0991 6.95574 16.8377 6.91278C16.4965 6.85826 16.4965 6.85661 16.4949 6.50137C16.4933 6.00073 16.4933 6.00073 16.0086 6.00073C15.9384 6.00073 15.8683 5.99908 15.7981 6.00073C15.5717 6.00734 15.5335 6.04865 15.5271 6.28492C15.5239 6.39067 15.5271 6.49641 15.5255 6.60381C15.5239 6.91774 15.5223 6.91278 15.2321 7.02183C14.5306 7.2862 14.0969 7.78188 14.0507 8.57496C14.0092 9.27718 14.3632 9.75138 14.9196 10.0967C15.2624 10.3098 15.6419 10.4354 16.0054 10.6023C16.1473 10.6667 16.2828 10.7411 16.4008 10.8435C16.75 11.1426 16.6862 11.6399 16.2717 11.8283C16.05 11.9291 15.8157 11.9538 15.5749 11.9225C15.2034 11.8745 14.8479 11.7737 14.513 11.5937C14.3169 11.4879 14.2595 11.516 14.1926 11.7357C14.1352 11.9258 14.0842 12.1174 14.0331 12.3091C13.9646 12.5668 13.9901 12.628 14.2276 12.7486C14.5306 12.9006 14.8542 12.9782 15.1843 13.0328C15.4426 13.0757 15.4505 13.0873 15.4537 13.3649C15.4553 13.4905 15.4553 13.6177 15.4569 13.7432C15.4585 13.9019 15.5319 13.9944 15.6897 13.9977C15.8683 14.001 16.0484 14.001 16.227 13.996C16.3737 13.9927 16.4486 13.9101 16.4486 13.7565C16.4486 13.5846 16.4566 13.4111 16.4502 13.2393C16.4423 13.0642 16.5156 12.9749 16.6782 12.9287C17.0529 12.8229 17.3718 12.6148 17.6173 12.3041C18.2997 11.4449 18.0398 10.1876 17.0736 9.63406Z" />
  </symbol>

  <symbol id="bayer--single" viewBox="0 0 18 18">
    <path d="M7.2 2.6C5.43269 2.6 4 4.03269 4 5.8C4 7.56731 5.43269 9 7.2 9C8.96731 9 10.4 7.56731 10.4 5.8C10.4 4.03269 8.96731 2.6 7.2 2.6ZM2.4 5.8C2.4 3.14903 4.54903 1 7.2 1C9.85097 1 12 3.14903 12 5.8C12 8.45097 9.85097 10.6 7.2 10.6C4.54903 10.6 2.4 8.45097 2.4 5.8ZM4 13.8C2.67452 13.8 1.6 14.8745 1.6 16.2C1.6 16.6418 1.24183 17 0.8 17C0.358172 17 0 16.6418 0 16.2C0 13.9909 1.79086 12.2 4 12.2H10.4C12.6091 12.2 14.4 13.9909 14.4 16.2C14.4 16.6418 14.0418 17 13.6 17C13.1582 17 12.8 16.6418 12.8 16.2C12.8 14.8745 11.7255 13.8 10.4 13.8H4Z" />
  </symbol>

  <symbol id='client' viewBox="0 0 18 18">
    <path d="M5.36364 17.0001H1.72727C1.53439 17.0001 1.3494 16.9235 1.21301 16.7871C1.07662 16.6507 1 16.4657 1 16.2728V12.6365C1 12.4436 1.07662 12.2586 1.21301 12.1222C1.3494 11.9858 1.53439 11.9092 1.72727 11.9092C1.92016 11.9092 2.10514 11.9858 2.24153 12.1222C2.37792 12.2586 2.45455 12.4436 2.45455 12.6365V15.5455H5.36364C5.55652 15.5455 5.74151 15.6222 5.8779 15.7586C6.01429 15.8949 6.09091 16.0799 6.09091 16.2728C6.09091 16.4657 6.01429 16.6507 5.8779 16.7871C5.74151 16.9235 5.55652 17.0001 5.36364 17.0001Z" />
    <path d="M16.2728 17.0001H12.6365C12.4436 17.0001 12.2586 16.9235 12.1222 16.7871C11.9858 16.6507 11.9092 16.4657 11.9092 16.2728C11.9092 16.0799 11.9858 15.8949 12.1222 15.7586C12.2586 15.6222 12.4436 15.5455 12.6365 15.5455H15.5455V12.6365C15.5455 12.4436 15.6222 12.2586 15.7586 12.1222C15.8949 11.9858 16.0799 11.9092 16.2728 11.9092C16.4657 11.9092 16.6507 11.9858 16.7871 12.1222C16.9235 12.2586 17.0001 12.4436 17.0001 12.6365V16.2728C17.0001 16.4657 16.9235 16.6507 16.7871 16.7871C16.6507 16.9235 16.4657 17.0001 16.2728 17.0001Z" />
    <path d="M16.2728 6.09091C16.0799 6.09091 15.8949 6.01429 15.7586 5.8779C15.6222 5.74151 15.5455 5.55652 15.5455 5.36364V2.45455H12.6365C12.4436 2.45455 12.2586 2.37792 12.1222 2.24153C11.9858 2.10514 11.9092 1.92016 11.9092 1.72727C11.9092 1.53439 11.9858 1.3494 12.1222 1.21301C12.2586 1.07662 12.4436 1 12.6365 1H16.2728C16.4657 1 16.6507 1.07662 16.7871 1.21301C16.9235 1.3494 17.0001 1.53439 17.0001 1.72727V5.36364C17.0001 5.55652 16.9235 5.74151 16.7871 5.8779C16.6507 6.01429 16.4657 6.09091 16.2728 6.09091Z" />
    <path d="M1.72727 6.09091C1.53439 6.09091 1.3494 6.01429 1.21301 5.8779C1.07662 5.74151 1 5.55652 1 5.36364V1.72727C1 1.53439 1.07662 1.3494 1.21301 1.21301C1.3494 1.07662 1.53439 1 1.72727 1H5.36364C5.55652 1 5.74151 1.07662 5.8779 1.21301C6.01429 1.3494 6.09091 1.53439 6.09091 1.72727C6.09091 1.92016 6.01429 2.10514 5.8779 2.24153C5.74151 2.37792 5.55652 2.45455 5.36364 2.45455H2.45455V5.36364C2.45455 5.55652 2.37792 5.74151 2.24153 5.8779C2.10514 6.01429 1.92016 6.09091 1.72727 6.09091Z" />
    <path d="M8.75797 9.48481C8.18261 9.48481 7.62016 9.31419 7.14177 8.99454C6.66337 8.67488 6.2905 8.22055 6.07032 7.68898C5.85014 7.15741 5.79253 6.57249 5.90478 6.00818C6.01702 5.44387 6.29409 4.92552 6.70093 4.51868C7.10778 4.11184 7.62613 3.83477 8.19043 3.72252C8.75474 3.61028 9.33966 3.66789 9.87123 3.88807C10.4028 4.10825 10.8571 4.48112 11.1768 4.95951C11.4964 5.43791 11.6671 6.00035 11.6671 6.57572C11.6671 7.34726 11.3606 8.0872 10.815 8.63276C10.2694 9.17832 9.52951 9.48481 8.75797 9.48481ZM8.75797 5.12117C8.47029 5.12117 8.18907 5.20648 7.94987 5.36631C7.71067 5.52614 7.52424 5.7533 7.41414 6.01909C7.30405 6.28487 7.27525 6.57733 7.33137 6.85949C7.3875 7.14164 7.52603 7.40082 7.72945 7.60424C7.93287 7.80766 8.19205 7.94619 8.4742 8.00232C8.75636 8.05844 9.04882 8.02963 9.3146 7.91954C9.58038 7.80945 9.80755 7.62302 9.96738 7.38382C10.1272 7.14462 10.2125 6.8634 10.2125 6.57572C10.2125 6.18995 10.0593 5.81998 9.78649 5.5472C9.51371 5.27442 9.14374 5.12117 8.75797 5.12117Z" />
    <path d="M12.7965 13.0484L12.6081 12.9539C11.4117 12.3595 10.0939 12.0503 8.75796 12.0503C7.42203 12.0503 6.10423 12.3595 4.90778 12.9539L4.71942 13.0484C4.54678 13.1346 4.34697 13.1487 4.16394 13.0876C3.9809 13.0265 3.82964 12.8952 3.74342 12.7226C3.6572 12.5499 3.64309 12.3501 3.70419 12.1671C3.76529 11.9841 3.8966 11.8328 4.06923 11.7466L4.2576 11.6528C5.65602 10.9578 7.19638 10.5962 8.75796 10.5962C10.3195 10.5962 11.8599 10.9578 13.2583 11.6528L13.4467 11.7466C13.5322 11.7893 13.6084 11.8484 13.671 11.9205C13.7337 11.9927 13.7815 12.0765 13.8117 12.1671C13.842 12.2577 13.8541 12.3534 13.8474 12.4487C13.8406 12.5441 13.8152 12.6371 13.7725 12.7226C13.7298 12.8081 13.6707 12.8843 13.5986 12.9469C13.5264 13.0096 13.4426 13.0574 13.352 13.0876C13.2614 13.1179 13.1657 13.13 13.0703 13.1233C12.975 13.1165 12.882 13.0911 12.7965 13.0484Z" />
  </symbol>

  <symbol id='product' viewBox="0 0 18 18">
    <path d="M15 5H13C13 3.93913 12.5786 2.92172 11.8284 2.17157C11.0783 1.42143 10.0609 1 9 1C7.93913 1 6.92172 1.42143 6.17157 2.17157C5.42143 2.92172 5 3.93913 5 5H3C2.46957 5 1.96086 5.21071 1.58579 5.58579C1.21071 5.96086 1 6.46957 1 7L1 13.6667C1.00106 14.5504 1.35259 15.3976 1.97748 16.0225C2.60237 16.6474 3.4496 16.9989 4.33333 17H13.6667C14.5504 16.9989 15.3976 16.6474 16.0225 16.0225C16.6474 15.3976 16.9989 14.5504 17 13.6667V7C17 6.46957 16.7893 5.96086 16.4142 5.58579C16.0391 5.21071 15.5304 5 15 5ZM9 2.33333C9.70724 2.33333 10.3855 2.61428 10.8856 3.11438C11.3857 3.61448 11.6667 4.29276 11.6667 5H6.33333C6.33333 4.29276 6.61428 3.61448 7.11438 3.11438C7.61448 2.61428 8.29276 2.33333 9 2.33333ZM15.6667 13.6667C15.6667 14.1971 15.456 14.7058 15.0809 15.0809C14.7058 15.456 14.1971 15.6667 13.6667 15.6667H4.33333C3.8029 15.6667 3.29419 15.456 2.91912 15.0809C2.54405 14.7058 2.33333 14.1971 2.33333 13.6667V7C2.33333 6.82319 2.40357 6.65362 2.5286 6.5286C2.65362 6.40357 2.82319 6.33333 3 6.33333H5V7.66667C5 7.84348 5.07024 8.01305 5.19526 8.13807C5.32029 8.2631 5.48986 8.33333 5.66667 8.33333C5.84348 8.33333 6.01305 8.2631 6.13807 8.13807C6.2631 8.01305 6.33333 7.84348 6.33333 7.66667V6.33333H11.6667V7.66667C11.6667 7.84348 11.7369 8.01305 11.8619 8.13807C11.987 8.2631 12.1565 8.33333 12.3333 8.33333C12.5101 8.33333 12.6797 8.2631 12.8047 8.13807C12.9298 8.01305 13 7.84348 13 7.66667V6.33333H15C15.1768 6.33333 15.3464 6.40357 15.4714 6.5286C15.5964 6.65362 15.6667 6.82319 15.6667 7V13.6667Z" />
  </symbol>

  <symbol id="status" viewBox="0 0 18 18">
    <path d="M9 4.33333C8.73478 4.33333 8.48043 4.22798 8.29289 4.04044C8.10536 3.8529 8 3.59855 8 3.33333V2C8 1.73478 8.10536 1.48043 8.29289 1.29289C8.48043 1.10536 8.73478 1 9 1C9.26522 1 9.51957 1.10536 9.70711 1.29289C9.89464 1.48043 10 1.73478 10 2V3.33333C10 3.59855 9.89464 3.8529 9.70711 4.04044C9.51957 4.22798 9.26522 4.33333 9 4.33333ZM10 16V14.6667C10 14.4015 9.89464 14.1471 9.70711 13.9596C9.51957 13.772 9.26522 13.6667 9 13.6667C8.73478 13.6667 8.48043 13.772 8.29289 13.9596C8.10536 14.1471 8 14.4015 8 14.6667V16C8 16.2652 8.10536 16.5196 8.29289 16.7071C8.48043 16.8946 8.73478 17 9 17C9.26522 17 9.51957 16.8946 9.70711 16.7071C9.89464 16.5196 10 16.2652 10 16ZM4.33333 9C4.33333 8.73478 4.22798 8.48043 4.04044 8.29289C3.8529 8.10536 3.59855 8 3.33333 8H2C1.73478 8 1.48043 8.10536 1.29289 8.29289C1.10536 8.48043 1 8.73478 1 9C1 9.26522 1.10536 9.51957 1.29289 9.70711C1.48043 9.89464 1.73478 10 2 10H3.33333C3.59855 10 3.8529 9.89464 4.04044 9.70711C4.22798 9.51957 4.33333 9.26522 4.33333 9ZM17 9C17 8.73478 16.8946 8.48043 16.7071 8.29289C16.5196 8.10536 16.2652 8 16 8H14.6667C14.4015 8 14.1471 8.10536 13.9596 8.29289C13.772 8.48043 13.6667 8.73478 13.6667 9C13.6667 9.26522 13.772 9.51957 13.9596 9.70711C14.1471 9.89464 14.4015 10 14.6667 10H16C16.2652 10 16.5196 9.89464 16.7071 9.70711C16.8946 9.51957 17 9.26522 17 9ZM12.6507 4.55267L13.3047 3.39067C13.4297 3.16003 13.459 2.88951 13.3864 2.63743C13.3138 2.38535 13.1451 2.17189 12.9165 2.04307C12.688 1.91425 12.418 1.88038 12.1648 1.94877C11.9115 2.01716 11.6953 2.18233 11.5627 2.40867L10.908 3.57067C10.8435 3.68512 10.8021 3.81117 10.7863 3.94162C10.7705 4.07206 10.7806 4.20434 10.8159 4.33089C10.8513 4.45744 10.9112 4.57578 10.9924 4.67915C11.0735 4.78252 11.1742 4.8689 11.2887 4.93333C11.438 5.01826 11.6069 5.06283 11.7787 5.06267C11.9562 5.06272 12.1306 5.0155 12.2838 4.92587C12.437 4.83624 12.5637 4.70743 12.6507 4.55267ZM6.43733 15.5913L7.092 14.4293C7.22222 14.1982 7.25531 13.9249 7.18398 13.6694C7.11266 13.4139 6.94276 13.1972 6.71167 13.067C6.48058 12.9368 6.20722 12.9037 5.95173 12.975C5.69624 13.0463 5.47955 13.2162 5.34933 13.4473L4.69533 14.6093C4.57034 14.84 4.54098 15.1105 4.61358 15.3626C4.68618 15.6147 4.85493 15.8281 5.08345 15.9569C5.31197 16.0858 5.58196 16.1196 5.83522 16.0512C6.08848 15.9828 6.30472 15.8177 6.43733 15.5913ZM4.93333 6.71133C5.06352 6.48032 5.09662 6.20706 5.02536 5.95165C4.9541 5.69623 4.78431 5.47958 4.55333 5.34933L3.39067 4.69533C3.16003 4.57034 2.88951 4.54098 2.63743 4.61358C2.38535 4.68618 2.17189 4.85493 2.04307 5.08345C1.91425 5.31197 1.88038 5.58196 1.94877 5.83522C2.01716 6.08848 2.18233 6.30472 2.40867 6.43733L3.57067 7.092C3.68512 7.15654 3.81117 7.19789 3.94162 7.21368C4.07206 7.22948 4.20434 7.21941 4.33089 7.18406C4.45744 7.14871 4.57578 7.08876 4.67915 7.00765C4.78252 6.92654 4.8689 6.82585 4.93333 6.71133ZM15.972 12.9247C16.1022 12.6937 16.1353 12.4204 16.064 12.165C15.9928 11.9096 15.823 11.6929 15.592 11.5627L14.43 10.908C14.3156 10.8435 14.1896 10.8022 14.0592 10.7864C13.9288 10.7706 13.7966 10.7807 13.6701 10.816C13.5436 10.8513 13.4253 10.9112 13.3219 10.9923C13.2185 11.0733 13.1321 11.1739 13.0677 11.2883C13.0032 11.4028 12.9619 11.5288 12.9461 11.6592C12.9303 11.7895 12.9404 11.9218 12.9757 12.0483C13.047 12.3038 13.2169 12.5204 13.448 12.6507L14.61 13.3047C14.841 13.4349 15.1143 13.468 15.3697 13.3967C15.6251 13.3254 15.8418 13.1556 15.972 12.9247ZM6.71133 4.93333C6.94242 4.8032 7.11235 4.58659 7.18374 4.33117C7.25513 4.07575 7.22213 3.80243 7.092 3.57133L6.43733 2.40867C6.30472 2.18233 6.08848 2.01716 5.83522 1.94877C5.58196 1.88038 5.31197 1.91425 5.08345 2.04307C4.85493 2.17189 4.68618 2.38535 4.61358 2.63743C4.54098 2.88951 4.57034 3.16003 4.69533 3.39067L5.34933 4.55267C5.43641 4.7073 5.56307 4.83598 5.71632 4.92549C5.86956 5.015 6.04386 5.06212 6.22133 5.062C6.39307 5.06237 6.56194 5.01802 6.71133 4.93333ZM12.9247 15.972C13.1556 15.8418 13.3254 15.6251 13.3967 15.3697C13.468 15.1143 13.4349 14.841 13.3047 14.61L12.6507 13.448C12.5204 13.2169 12.3038 13.047 12.0483 12.9757C11.7928 12.9044 11.5194 12.9374 11.2883 13.0677C11.0572 13.1979 10.8873 13.4146 10.816 13.6701C10.7447 13.9256 10.7778 14.1989 10.908 14.43L11.5627 15.592C11.6929 15.823 11.9096 15.9928 12.165 16.064C12.4204 16.1353 12.6937 16.1022 12.9247 15.972ZM14.4293 7.092L15.5913 6.43733C15.8177 6.30472 15.9828 6.08848 16.0512 5.83522C16.1196 5.58196 16.0858 5.31197 15.9569 5.08345C15.8281 4.85493 15.6147 4.68618 15.3626 4.61358C15.1105 4.54098 14.84 4.57034 14.6093 4.69533L13.4473 5.34933C13.2162 5.47955 13.0463 5.69624 12.975 5.95173C12.9037 6.20722 12.9368 6.48058 13.067 6.71167C13.1972 6.94276 13.4139 7.11266 13.6694 7.18398C13.9249 7.25531 14.1982 7.22222 14.4293 7.092ZM3.39067 13.3047L4.55267 12.6507C4.66709 12.5862 4.7677 12.4998 4.84874 12.3964C4.92978 12.2931 4.98966 12.1748 5.02498 12.0483C5.0603 11.9218 5.07035 11.7895 5.05457 11.6592C5.03879 11.5288 4.99748 11.4028 4.933 11.2883C4.86852 11.1739 4.78214 11.0733 4.67878 10.9923C4.57542 10.9112 4.45711 10.8513 4.3306 10.816C4.2041 10.7807 4.07188 10.7706 3.94149 10.7864C3.8111 10.8022 3.68509 10.8435 3.57067 10.908L2.40867 11.5627C2.2163 11.6713 2.06533 11.8407 1.97936 12.0442C1.89338 12.2477 1.87723 12.474 1.93343 12.6877C1.98963 12.9014 2.11501 13.0904 2.29 13.2253C2.46499 13.3602 2.67972 13.4334 2.90067 13.4333C3.0724 13.4337 3.24128 13.3894 3.39067 13.3047Z" />
  </symbol>

  <symbol id="link" viewBox="0 0 18 18">
    <path d="M12.2475 3.79208C12.2475 3.35463 12.6021 3 13.0396 3C13.544 3 14.0396 3.10134 14.5219 3.29428C15.0468 3.50424 15.4509 3.81585 15.8175 4.18249C16.1842 4.54913 16.4958 4.95318 16.7057 5.47811C16.8987 5.96044 17 6.45605 17 6.9604C17 7.46474 16.8987 7.96035 16.7057 8.44269C16.4984 8.96102 16.192 9.36151 15.8313 9.72449L15.0514 10.5823C15.043 10.5916 15.0343 10.6007 15.0254 10.6096L12.4908 13.1442C12.1241 13.5109 11.7201 13.8225 11.1952 14.0325C10.7128 14.2254 10.2172 14.3267 9.71287 14.3267C9.20852 14.3267 8.71292 14.2254 8.23058 14.0325C7.70566 13.8225 7.30161 13.5109 6.93496 13.1442C6.56832 12.7776 6.25672 12.3735 6.04675 11.8486C5.8501 11.357 5.75247 10.8609 5.75247 10.2871C5.75247 9.78278 5.85382 9.28717 6.04675 8.80484C6.25672 8.27992 6.56832 7.87587 6.93496 7.50922L7.80625 6.63794C8.11558 6.32861 8.61709 6.32861 8.92642 6.63794C9.23575 6.94726 9.23575 7.44878 8.92642 7.7581L8.05513 8.62939C7.78811 8.89641 7.62447 9.12602 7.51761 9.39318C7.39371 9.70292 7.33663 9.9994 7.33663 10.2871C7.33663 10.6638 7.39742 10.9598 7.51761 11.2603C7.62447 11.5274 7.78811 11.7571 8.05513 12.0241C8.32215 12.2911 8.55177 12.4547 8.81892 12.5616C9.12867 12.6855 9.42514 12.7426 9.71287 12.7426C10.0006 12.7426 10.2971 12.6855 10.6068 12.5616C10.874 12.4547 11.1036 12.2911 11.3706 12.0241L13.8919 9.50275L14.6713 8.64541C14.6798 8.63611 14.6885 8.62702 14.6973 8.61813C14.9644 8.35111 15.128 8.1215 15.2349 7.85434C15.3588 7.5446 15.4158 7.24813 15.4158 6.9604C15.4158 6.67266 15.3588 6.37619 15.2349 6.06645C15.128 5.79929 14.9644 5.56968 14.6973 5.30266C14.4303 5.03564 14.2007 4.87199 13.9336 4.76513C13.6238 4.64123 13.3273 4.58416 13.0396 4.58416C12.6021 4.58416 12.2475 4.22953 12.2475 3.79208ZM8.36634 4.9802C8.0786 4.9802 7.78213 5.03727 7.47239 5.16117C7.20523 5.26803 6.97562 5.43168 6.7086 5.6987L4.10807 8.29923L3.32867 9.15657C3.32021 9.16587 3.31154 9.17496 3.30266 9.18385C3.03564 9.45087 2.87199 9.68048 2.76513 9.94764C2.64123 10.2574 2.58416 10.5539 2.58416 10.8416C2.58416 11.1293 2.64123 11.4258 2.76513 11.7355C2.87199 12.0027 3.03564 12.2323 3.30266 12.4993C3.56968 12.7663 3.79929 12.93 4.06645 13.0368C4.37619 13.1607 4.67266 13.2178 4.9604 13.2178C5.39785 13.2178 5.75247 13.5724 5.75247 14.0099C5.75247 14.4474 5.39785 14.802 4.9604 14.802C4.45605 14.802 3.96044 14.7006 3.47811 14.5077C2.95318 14.2977 2.54913 13.9861 2.18249 13.6195C1.81585 13.2528 1.50424 12.8488 1.29428 12.3239C1.10134 11.8415 1 11.3459 1 10.8416C1 10.3372 1.10134 9.84163 1.29428 9.35929C1.50161 8.84095 1.80805 8.44047 2.16872 8.07749L2.94856 7.21967C2.95701 7.21037 2.96568 7.20127 2.97457 7.19239L5.58843 4.57853C5.95507 4.21188 6.35913 3.90028 6.88405 3.69032C7.36638 3.49738 7.86199 3.39604 8.36634 3.39604C8.87068 3.39604 9.36629 3.49738 9.84863 3.69032C10.3735 3.90028 10.7776 4.21188 11.1442 4.57853C11.5109 4.94517 11.8225 5.34922 12.0325 5.87415C12.2254 6.35648 12.3267 6.85209 12.3267 7.35644C12.3267 7.86078 12.2254 8.35639 12.0325 8.83873C11.8249 9.35763 11.518 9.75842 11.1568 10.1217L10.2968 11.06C10.0012 11.3825 9.50011 11.4042 9.17764 11.1086C8.85517 10.813 8.83339 10.312 9.12899 9.98952L10.0003 9.03903C10.008 9.03057 10.016 9.02228 10.0241 9.01417C10.2911 8.74715 10.4547 8.51754 10.5616 8.25038C10.6855 7.94064 10.7426 7.64417 10.7426 7.35644C10.7426 7.0687 10.6855 6.77223 10.5616 6.46249C10.4547 6.19533 10.2911 5.96572 10.0241 5.6987C9.75705 5.43168 9.52744 5.26803 9.26028 5.16117C8.95054 5.03727 8.65407 4.9802 8.36634 4.9802Z" />
  </symbol>



  <!-- mobile navigation  -->
  <symbol id="tab-pill" viewBox="0 0 37 4">
    <path d="M0 0H37L35.8955 2.74626C35.5909 3.50374 34.8564 4 34.04 4H2.96003C2.14359 4 1.40911 3.50374 1.10447 2.74626L0 0Z" />
  </symbol>

  <symbol id="navigation" viewBox="0 0 28 28">
    <path fill-rule="evenodd" clip-rule="evenodd" d="M9.80419 4.18182H5.27273C4.67024 4.18182 4.18182 4.67024 4.18182 5.27273V9.8042C4.18182 10.4067 4.67024 10.8951 5.27273 10.8951H9.8042C10.4067 10.8951 10.8951 10.4067 10.8951 9.80419V5.27273C10.8951 4.67024 10.4067 4.18182 9.80419 4.18182ZM5.27273 2C3.46525 2 2 3.46525 2 5.27273V9.8042C2 11.6117 3.46525 13.0769 5.27273 13.0769H9.8042C11.6117 13.0769 13.0769 11.6117 13.0769 9.80419V5.27273C13.0769 3.46525 11.6117 2 9.80419 2H5.27273Z" />
    <path fill-rule="evenodd" clip-rule="evenodd" d="M9.80419 17.1049H5.27273C4.67024 17.1049 4.18182 17.5933 4.18182 18.1958V22.7273C4.18182 23.3298 4.67024 23.8182 5.27273 23.8182H9.8042C10.4067 23.8182 10.8951 23.3298 10.8951 22.7273V18.1958C10.8951 17.5933 10.4067 17.1049 9.80419 17.1049ZM5.27273 14.9231C3.46525 14.9231 2 16.3883 2 18.1958V22.7273C2 24.5348 3.46525 26 5.27273 26H9.8042C11.6117 26 13.0769 24.5348 13.0769 22.7273V18.1958C13.0769 16.3883 11.6117 14.9231 9.80419 14.9231H5.27273Z" />
    <path fill-rule="evenodd" clip-rule="evenodd" d="M22.7274 17.1049H18.1959C17.5935 17.1049 17.105 17.5933 17.105 18.1958V22.7273C17.105 23.3298 17.5935 23.8182 18.1959 23.8182H22.7274C23.3299 23.8182 23.8183 23.3298 23.8183 22.7273V18.1958C23.8183 17.5933 23.3299 17.1049 22.7274 17.1049ZM18.1959 14.9231C16.3885 14.9231 14.9232 16.3883 14.9232 18.1958V22.7273C14.9232 24.5348 16.3885 26 18.1959 26H22.7274C24.5349 26 26.0001 24.5348 26.0001 22.7273V18.1958C26.0001 16.3883 24.5349 14.9231 22.7274 14.9231H18.1959Z" />
    <path fill-rule="evenodd" clip-rule="evenodd" d="M22.7274 4.18182H18.1959C17.5935 4.18182 17.105 4.67024 17.105 5.27273V9.8042C17.105 10.4067 17.5935 10.8951 18.1959 10.8951H22.7274C23.3299 10.8951 23.8183 10.4067 23.8183 9.80419V5.27273C23.8183 4.67024 23.3299 4.18182 22.7274 4.18182ZM18.1959 2C16.3885 2 14.9232 3.46525 14.9232 5.27273V9.8042C14.9232 11.6117 16.3885 13.0769 18.1959 13.0769H22.7274C24.5349 13.0769 26.0001 11.6117 26.0001 9.80419V5.27273C26.0001 3.46525 24.5349 2 22.7274 2H18.1959Z" />
  </symbol>

  <symbol id="filter" viewBox="0 0 28 28">
    <path d="M1 6.5625C1 5.69956 1.69956 5 2.5625 5H24.4375C25.3004 5 26 5.69956 26 6.5625C26 7.42545 25.3004 8.125 24.4375 8.125H2.5625C1.69956 8.125 1 7.42545 1 6.5625ZM4.125 14.375C4.125 13.5121 4.82456 12.8125 5.6875 12.8125H21.3125C22.1754 12.8125 22.875 13.5121 22.875 14.375C22.875 15.2379 22.1754 15.9375 21.3125 15.9375H5.6875C4.82456 15.9375 4.125 15.2379 4.125 14.375ZM7.25 22.1875C7.25 21.3246 7.94955 20.625 8.8125 20.625H18.1875C19.0504 20.625 19.75 21.3246 19.75 22.1875C19.75 23.0504 19.0504 23.75 18.1875 23.75H8.8125C7.94955 23.75 7.25 23.0504 7.25 22.1875Z" />
  </symbol>



  <!-- other icons  -->
  <symbol id="arrow--prev" viewBox="0 0 7 12" fill="none">
    <path d="M6 1L1 6L6 11" stroke="#6081D5" stroke-linecap="round" stroke-linejoin="round"/>
  </symbol>

  <symbol id="arrow--next" viewBox="0 0 7 12" fill="none">
    <path d="M1 11L6 6L1 1" stroke="#6081D5" stroke-linecap="round" stroke-linejoin="round"/>
  </symbol>

  <symbol id="arrow--down" viewBox="0 0 10 6" fill="none">
    <path d="M1 1L5 5L9 1" stroke="#6081D5" stroke-linecap="round" stroke-linejoin="round"/>
  </symbol>

  <symbol id="close" viewBox="0 0 15 16" fill="none">
    <path d="M10.9389 12.1144C11.0238 12.1994 11.1615 12.1994 11.2464 12.1144C11.3313 12.0295 11.3313 11.8919 11.2464 11.807L4.06183 4.62239C3.97692 4.53748 3.83926 4.53748 3.75435 4.62239C3.66944 4.7073 3.66944 4.84496 3.75435 4.92987L10.9389 12.1144Z" fill="#F3F3F3"/>
    <path d="M3.75434 11.807C3.66943 11.8919 3.66943 12.0295 3.75434 12.1145C3.83925 12.1994 3.97691 12.1994 4.06182 12.1145L11.2464 4.92987C11.3313 4.84497 11.3313 4.7073 11.2464 4.62239C11.1615 4.53749 11.0238 4.53749 10.9389 4.62239L3.75434 11.807Z" fill="#F3F3F3"/>
  </symbol>

  <symbol id="dot" viewBox="0 0 14 14" fill="none">
    <path d="M12.53 6.87441C12.53 3.9545 10.1629 1.58745 7.24302 1.58745C4.32311 1.58745 1.95605 3.9545 1.95605 6.87441C1.95605 9.79432 4.32311 12.1614 7.24302 12.1614C10.1629 12.1614 12.53 9.79432 12.53 6.87441Z" stroke="#919BB1" stroke-width="2"/>
  </symbol>

  <symbol id="dot--active" viewBox="0 0 15 15" fill="none">
    <path d="M7.63669 1.20425V2.98419C8.61454 3.12533 9.50889 3.61382 10.1561 4.36029C10.8033 5.10675 11.1602 6.0613 11.1613 7.04928C11.1591 7.55968 11.0636 8.06537 10.8794 8.54138L12.4067 9.44016C12.747 8.689 12.9232 7.87392 12.9237 7.04928C12.9229 5.59321 12.3817 4.18924 11.4049 3.10939C10.4282 2.02953 9.08538 1.35064 7.63669 1.20425ZM7.04925 11.1614C6.01516 11.1534 5.02203 10.7561 4.26777 10.0486C3.51351 9.34119 3.0535 8.37551 2.9794 7.34405C2.9053 6.31259 3.22256 5.29108 3.86795 4.48307C4.51334 3.67506 5.43947 3.13989 6.46181 2.98419V1.20425C5.48683 1.30046 4.55141 1.63899 3.74067 2.18902C2.92994 2.73905 2.26964 3.48312 1.81989 4.35349C1.37014 5.22386 1.14521 6.1929 1.16558 7.17239C1.18595 8.15189 1.45097 9.11074 1.93652 9.96166C2.42207 10.8126 3.11273 11.5286 3.94563 12.0444C4.77853 12.5603 5.72722 12.8596 6.70535 12.9152C7.68348 12.9708 8.65998 12.7809 9.54597 12.3627C10.432 11.9446 11.1993 11.3115 11.7781 10.5211L10.2508 9.62227C9.86754 10.1034 9.38053 10.4917 8.82616 10.7582C8.27178 11.0247 7.66436 11.1625 7.04925 11.1614Z" fill="#6081D5"/>
  </symbol>
  </svg>
